<?xml version="1.0" encoding="utf-8"?>
<!-- Generator: Adobe Illustrator 19.0.1, SVG Export Plug-In . SVG Version: 6.00 Build 0)  -->
<svg version="1.1" id="Layer_1" xmlns="http://www.w3.org/2000/svg" xmlns:xlink="http://www.w3.org/1999/xlink" x="0px" y="0px"
	 viewBox="0 0 192.8 53.4" style="enable-background:new 0 0 192.8 53.4;" xml:space="preserve">
<style type="text/css">
	.st0{fill-rule:evenodd;clip-rule:evenodd;fill:transparent}
	.st1{fill-rule:evenodd;clip-rule:evenodd; fill:#FFFFFF;}
</style>
<g>
	<polygon class="st0" points="0,-71.9 192.8,-71.9 192.8,120.8 0,120.8 0,-71.9 	"/>
	<path class="st1" d="M106.4,32.1l4.3,0.2l-3.2-4.2c-0.5-0.7-1.2-1.8-2.2-3.4l-1.8-4.2h-1.4v4.2c0,1.8,0.3,2.7,0.7,2.7h1.6v1.1h-8.4
		v-1.1h1.2c0.1,0,0.3-0.1,0.3-0.3V13.4c0-0.8-0.1-1.4-0.3-1.5c-0.1-0.1-0.4-0.3-0.7-0.3h-1.2v-1.1h9c1.2,0,2.5,0.3,3.4,0.7
		c1.9,1,2.9,2.5,2.9,4.8c0,0.7-0.3,1.2-0.7,1.9c-0.7,1-1.8,1.5-3,1.6c0.5,1,3.3,5.3,8.4,13l4.1,0.1l-3-3.6c-1.8-2.3-2.7-4.1-2.9-5.1
		c-0.1-1.5,0.3-2.6,1-3.6c0.8-1,2.1-1.4,3.6-1.4c2.1,0,3.4,1.8,4.1,5.5c-1.1-2.7-2.9-3.7-5.2-2.7c-0.7,0.3-1.2,0.7-1.4,1.1l-0.1,0.8
		c0,1,0.4,1.8,1.4,2.5c1,0.8,2.2,1.2,3.7,1.2c1.5,0,2.7-0.4,3.7-1.1c1-1,1.5-2.1,1.5-3.4c0-1-0.3-1.8-1-2.5c-0.5-0.4-1.4-1-2.5-1.4
		l-3.2-1.1c-1.2-0.5-2.2-1.1-2.9-1.6c-1.6-1.2-2.5-3-2.5-5.1c0-2.3,1.1-4.3,3.2-5.5c1.8-1.2,3.8-1.8,6.3-1.8c2.1,0,3.7,0.3,5.1,0.7
		l0.3,3.3c0.1,0.5-0.1,0.8-0.5,0.8c-0.4,0-0.7-0.3-0.8-0.8c-0.1-0.7-0.7-1.4-1.5-1.8c-0.7-0.4-1.6-0.5-2.6-0.5c-1.2,0-2.2,0.3-3,0.8
		c-1,0.7-1.5,1.6-1.5,2.9c0,0.8,0.3,1.5,1,2.1c0.4,0.4,1.2,0.8,2.3,1.2l3.2,1.2c1.2,0.4,2.3,1.1,3.3,1.8c0.7,0.7,1.2,1.5,1.6,2.5
		c0.4,1,0.7,1.9,0.7,2.9c0,3.2-1.1,5.3-3.3,6.6c-1.9,1-4.9,1.5-8.9,1.5c-0.3,0-0.1,0.4,0.4,1.1c0.4,0.8,1.1,1.6,2.1,2.5l10.8,0.5
		l9,1.1c-0.1,0.4-5.6,0.8-16.5,1.2c1.5,1,3.2,1.5,4.7,1.9c2.9,0.5,5.5,0.5,7.7,0c1.4-0.4,3.2-1.2,5.3-2.5c2.5-1.4,4.4-2.3,5.9-2.9
		c2.7-1,5.9-1.4,9.5-1.4c2.7,0,4.9,0.4,6.6,1.4c1.4,0.8,2.2,1.8,2.5,3c0.3,1.2,0,2.2-0.7,3.2c-0.8,1-2.1,1.4-3.6,1.4
		c2.6-3.7,0.4-6-6.6-6.9c-2.1-0.1-4.1,0-6,0.4c-1.5,0.3-3,0.8-4.8,1.8l-4.4,2.1c-1.8,0.8-3.3,1.4-4.7,1.5c-2.9,0.4-5.9,0.1-8.8-0.8
		c-1.6-0.7-3.2-1.4-4.4-2.2l-5.2,0.1L128.2,52l-8.1-7.8c-0.4,0-2.6-2.6-6.6-8l-0.3-0.4l-5.2,0.3v0.1c0,0,0,0.1,0,0.1l0,0
		c0,0.2-0.1,0.3-0.2,0.5c-0.1,0.2-0.2,0.3-0.2,0.5l0,0c-0.5,0.8-1.2,1.4-2.2,1.8l0,0c-0.2,0.1-0.4,0.2-0.6,0.2
		c-0.2,0.1-0.4,0.1-0.6,0.2c-1.1,0.2-2.2,0.2-3.4-0.1l0,0c-0.2-0.1-0.4-0.1-0.7-0.2c-0.2-0.1-0.4-0.2-0.6-0.3
		c-1-0.5-1.9-1.1-2.5-1.9l0,0c-0.5-0.6-0.9-1.2-1.1-1.9c-0.2-0.6-0.2-1.3,0-1.9l0,0c0-0.2,0.1-0.3,0.2-0.5c0.1-0.2,0.2-0.3,0.2-0.5
		l0,0c0.5-0.8,1.2-1.4,2.2-1.8c0,0,0,0,0,0l0,0c0.2-0.1,0.4-0.1,0.6-0.2v0c0.2,0,0.4-0.1,0.6-0.1c1-0.2,2.2-0.2,3.3,0.1
		c0.1,0,0.3,0,0.4,0.1v0c0.2,0,0.3,0.1,0.4,0.1c0.7,0.2,1.4,0.6,2,1c0,0,0,0,0,0L106.4,32.1L106.4,32.1z M106.9,36.2v-0.3
		c0,0,0-0.1,0-0.1c0.1-0.4,0-0.8-0.1-1.2c-0.1-0.4-0.4-0.8-0.7-1.2l-0.9-0.9c-0.4-0.3-1-0.6-1.6-0.8c-0.1,0-0.3-0.1-0.4-0.1h0
		c-0.1,0-0.2,0-0.4-0.1l0,0c0,0-0.1,0-0.1,0c-1-0.3-2-0.3-2.9-0.1c-0.2,0-0.4,0.1-0.5,0.1h0c-0.2,0-0.3,0.1-0.5,0.1
		c-0.8,0.3-1.3,0.8-1.7,1.4h0c-0.1,0.1-0.1,0.2-0.2,0.3c0,0.1-0.1,0.2-0.1,0.4l0,0c-0.1,0.5-0.1,0.9,0,1.4c0.1,0.5,0.4,0.9,0.8,1.4
		l0,0c0.5,0.6,1.3,1.2,2.2,1.6c0.2,0.1,0.4,0.2,0.5,0.2c0.2,0.1,0.4,0.1,0.6,0.2l0,0c1,0.3,2,0.3,2.9,0.1c0.2,0,0.3-0.1,0.5-0.1
		c0.2-0.1,0.3-0.1,0.5-0.2l0,0c0.8-0.3,1.4-0.8,1.7-1.4h0c0.1-0.1,0.1-0.2,0.2-0.3C106.9,36.4,106.9,36.3,106.9,36.2L106.9,36.2z
		 M105.3,18.5c-0.5,0.5-1.4,0.8-2.5,0.8h-0.7v-7.1c0-0.1,0.1-0.3,0.5-0.3c1,0,1.9,0.4,2.6,1.2c0.7,0.8,1,1.8,1,2.7
		C106.2,17,106,17.8,105.3,18.5L105.3,18.5z M149.4,10.5v1.1h-1l-0.4,0.1l-0.1,0.4v12.5c0,1.8,0.3,2.7,0.7,2.7h1.5v1.1h-8.2v-1.1
		h1.2c0.1,0,0.3-0.1,0.3-0.3v-7.7h-6v5.2c0,1.8,0.3,2.7,0.7,2.7h1.6v1.1h-8.4v-1.1h1.2c0.1,0,0.3-0.1,0.3-0.3V13.4
		c0-0.8-0.1-1.4-0.3-1.5c-0.1-0.1-0.3-0.3-0.5-0.3h-1.4v-1.1h8.4v1.1h-1.1l-0.4,0.1l-0.1,0.4v6h6v-4.8c0-0.8-0.1-1.4-0.3-1.5
		c-0.1-0.1-0.3-0.3-0.5-0.3h-1.4v-1.1H149.4L149.4,10.5z M152.4,26.7c1.8,1.5,4,2.3,6.7,2.3c3.4,0,6-1.2,7.8-3.6
		c1.5-1.8,2.2-4,2.2-6.4c0-2.7-0.8-4.9-2.6-6.6c-1.8-1.6-4-2.5-6.7-2.5c-3.4,0-6,1.2-7.8,3.6c-1.5,1.9-2.2,4.1-2.2,6.4
		C149.8,22.8,150.7,25,152.4,26.7L152.4,26.7z M168.8,10.5v1.1h1.4c0.3,0,0.4,0.1,0.5,0.3c0.1,0.1,0.3,0.7,0.3,1.5v13.7
		c0,0.1-0.1,0.3-0.3,0.3h-1.2v1.1h8.4v-1.1h-1.6c-0.4,0-0.7-1-0.7-2.7v-4.5l2.3,0.3c2.1,0,3.7-0.5,4.9-1.6c1-1,1.5-2.1,1.5-3.3
		c0-1.2-0.4-2.2-1.4-3.2c-1.1-1.2-2.7-1.8-4.9-1.8H168.8L168.8,10.5z M158.8,11.2c2.1,0,3.7,1.2,4.7,3.8c0.8,1.9,1.2,4.1,1.2,6.4
		c0,1.8-0.3,3.2-0.8,4.3c-0.8,1.4-2.1,2.1-3.6,2.1c-2.1,0-3.7-1.2-4.8-3.7c-0.7-1.9-1.1-4.1-1.1-6.6c0-1.6,0.3-3,0.8-4.1
		C155.9,11.9,157.1,11.2,158.8,11.2L158.8,11.2z M178.8,13.1c0.7,0.8,1,1.8,1,2.9c0,1-0.3,1.6-0.8,2.2c-0.7,0.7-1.4,1-2.3,1
		l-1.1-0.3v-6.7c0-0.1,0.3-0.3,0.7-0.3C177.3,11.9,178.1,12.3,178.8,13.1L178.8,13.1z M113.2,34.2l0.3-0.7l0.7-0.3
		c0.3,0,0.5,0.1,0.7,0.3l0.3,0.7c0,0.3-0.1,0.5-0.3,0.7c-0.1,0.1-0.4,0.3-0.7,0.3l-0.7-0.3C113.4,34.8,113.2,34.5,113.2,34.2
		L113.2,34.2z M10.3,6.1c0.4,0,0.7,0.1,0.8,0.3c0.3,0.4,0.4,1.1,0.4,2.1v18.2c0,0.1-0.3,0.3-0.7,0.3l-1.8,0.1v1.4h8.4l3.8-0.1
		c1.5-0.1,2.7-0.4,3.7-0.8c1.4-0.4,2.5-1.1,3.3-2.1c0.8-1.1,1.2-2.3,1.2-3.7c0-3.4-2.2-5.6-6.6-6.6l0,0c1.6-0.4,2.9-1,3.6-1.5
		c1.2-1,1.9-2.2,1.9-3.7c0-1-0.4-1.9-1.1-2.9c-1.4-1.5-3.6-2.3-6.7-2.3H8.5v1.4H10.3L10.3,6.1z M36.2,10.6l-3.4,7.8
		c-2.1,4.9-3.2,7.8-3.4,8.5c0,0.1-0.1,0.3-0.3,0.4h-0.5h-0.8v1.1h5.6v-1.1h-2.1L31.1,27c0-0.4,0.3-1.4,0.7-2.6l0.8-2.1H38
		c1.1,3.2,1.6,4.7,1.6,4.8s-0.1,0.3-0.4,0.3H38v1.1h8.2v-1.1h-0.8c-0.4,0-0.7-0.1-0.8-0.5l-1-2.1l-3-8c-1.2-3.2-1.8-4.9-1.8-5.2
		l0.4-0.5c0.1-0.1,0.3-0.3,0.3-0.4c0-0.3-0.1-0.4-0.4-0.4L36.2,10.6L36.2,10.6z M18.4,6.4c1.4,0,2.5,0.4,3.4,1.4
		c1,1,1.4,2.2,1.4,3.6c0,0.8-0.1,1.5-0.4,2.1c-0.4,0.7-1,1.2-1.6,1.4l-3.7-0.3V6.8C17.4,6.5,17.7,6.4,18.4,6.4L18.4,6.4z M17.4,20.9
		v-5.1c2.3,0,4,0.7,5.1,2.2c0.8,1.1,1.2,2.3,1.2,3.7c0,1.4-0.4,2.6-1.2,3.6c-1,1-2.1,1.5-3.4,1.5l-0.8-0.1c-0.3-0.1-0.4-0.3-0.5-0.5
		C17.6,25.5,17.4,23.8,17.4,20.9L17.4,20.9z M33,21.1l2.5-5.6l2.1,5.6H33L33,21.1z M48.3,13.4v13.7c0,0.1-0.1,0.3-0.3,0.3h-1.2v1.1
		h8.4v-1.1h-1.6c-0.4,0-0.7-1-0.7-2.7v-4.2h1.4l1.9,4.2c0.8,1.6,1.5,2.7,2.2,3.4c0.1,0.1,0.3,0.3,0.5,0.4h5.3v-1.1
		c-0.5,0-1.1-0.3-1.5-0.7c-1.5-1.5-3-4-4.8-7.1c1.2-0.1,2.2-0.7,2.9-1.6c0.5-0.7,0.8-1.2,0.8-1.9c0-2.3-1-3.8-3-4.8
		c-1-0.4-2.1-0.7-3.3-0.7h-9.2v1.1h1.4c0.3,0,0.4,0.1,0.5,0.3C48.1,12,48.3,12.6,48.3,13.4L48.3,13.4z M53.5,11.9
		c1,0,1.8,0.4,2.5,1.2c0.7,0.8,1,1.8,1,2.7c0,1.1-0.3,1.9-0.8,2.6c-0.7,0.5-1.5,0.8-2.5,0.8h-0.8v-7.1C52.8,12,53.1,11.9,53.5,11.9
		L53.5,11.9z M66.4,13.4v13.7c0,0.1-0.1,0.3-0.3,0.3h-1.2v1.1h6c2.6,0,4.5-0.3,5.6-0.7c2.3-0.8,3.4-2.3,3.4-4.4
		c0-2.6-1.6-4.2-4.9-4.9l0,0c1.2-0.4,2.1-0.8,2.7-1.2c1-0.7,1.4-1.5,1.4-2.7c0-0.7-0.3-1.4-0.8-2.1c-1-1.2-2.7-1.9-5.1-1.9h-9v1.1
		h1.4c0.3,0,0.4,0.1,0.5,0.3C66.2,12,66.4,12.6,66.4,13.4L66.4,13.4z M81.4,11.6h-1.4v-1.1h14.4l-0.3,2.9c-0.1,0.3-0.3,0.4-0.5,0.4
		c-0.3,0-0.4-0.1-0.4-0.5L93,12.7l-0.5-0.4l-2.3-0.4h-3.2l-0.1,0.4v5.9h1.5c1.5,0,2.5-0.1,2.9-0.3c0.3-0.1,0.4-0.4,0.4-0.8v-1h1v4.9
		h-1v-0.4c0-0.5-0.1-0.8-0.3-1c-0.3-0.1-1-0.3-2.1-0.3h-2.5v3.4c0,1.8,0,3,0.1,3.7c0.1,0.4,0.3,0.7,0.5,0.7l4.2-0.3
		c1.5-0.3,2.3-0.8,2.7-1.5L95,25c0.3,0,0.4,0.1,0.4,0.4c0,0.4-0.3,1.4-0.8,3H80.7v-1.1H82c0.1,0,0.3-0.1,0.3-0.3V13.4
		c0-0.8-0.1-1.4-0.3-1.5C81.8,11.7,81.7,11.6,81.4,11.6L81.4,11.6z M73.6,18l-2.7-0.1v-5.8c0-0.1,0.3-0.3,0.7-0.3c1,0,1.9,0.3,2.6,1
		c0.7,0.7,1,1.6,1,2.7c0,0.5-0.1,1.1-0.3,1.5C74.6,17.6,74.2,17.9,73.6,18L73.6,18z M72.1,27.2l-0.7-0.1c-0.1,0-0.3-0.1-0.3-0.4
		c-0.1-0.4-0.3-1.8-0.3-3.8V19c1.6,0,2.9,0.5,3.8,1.6c0.7,0.8,1,1.8,1,2.7s-0.4,1.9-1.1,2.6C73.9,26.8,73.1,27.2,72.1,27.2
		L72.1,27.2z"/>
</g>
</svg>
